<?xml version="1.0" standalone="no"?>
<!DOCTYPE svg PUBLIC "-//W3C//DTD SVG 20010904//EN"
 "http://www.w3.org/TR/2001/REC-SVG-20010904/DTD/svg10.dtd">
<svg version="1.0" xmlns="http://www.w3.org/2000/svg"
 width="131.000000pt" height="131.000000pt" viewBox="0 0 131.000000 131.000000"
 preserveAspectRatio="xMidYMid meet">
<metadata>
Created by potrace 1.14, written by Peter Selinger 2001-2017
</metadata>
<g transform="translate(0.000000,131.000000) scale(0.100000,-0.100000)"
fill="#000000" stroke="none">
<path d="M935 1189 c-22 -4 -51 -11 -65 -14 -31 -8 -55 -12 -103 -19 -21 -3
-45 -13 -53 -21 -9 -8 -13 -15 -11 -15 3 0 -9 -28 -26 -62 -17 -35 -32 -70
-33 -78 -2 -8 -8 -16 -13 -18 -6 -2 -11 -10 -11 -19 0 -11 -5 -10 -26 6 -20
16 -54 20 -54 6 0 -1 -14 -40 -30 -86 -17 -46 -33 -91 -35 -99 -2 -8 -37 -103
-79 -210 -41 -107 -80 -214 -86 -238 -10 -41 -14 -44 -108 -91 -110 -55 -131
-74 -115 -99 5 -10 13 -15 16 -12 2 3 15 -4 28 -15 20 -17 21 -17 9 -2 -12 17
-12 18 6 15 10 -1 26 -14 35 -26 11 -15 19 -20 23 -13 4 6 3 11 -3 11 -6 0 -8
7 -5 15 5 12 8 12 23 -3 9 -10 15 -16 14 -13 -2 2 3 11 10 20 10 14 10 14 -4
4 -12 -10 -16 -10 -16 0 0 9 12 13 31 12 17 -1 40 5 50 14 11 9 16 10 12 3 -8
-13 10 -17 18 -4 3 5 15 8 28 7 13 -1 26 3 30 8 4 7 11 7 20 1 15 -12 77 -12
95 -1 6 4 14 3 18 -3 3 -5 15 -10 26 -10 14 0 18 4 13 12 -5 9 -2 9 9 -1 15
-12 21 -9 19 10 -1 4 7 5 18 2 11 -3 17 -9 14 -14 -3 -5 -10 -6 -16 -3 -6 4
-8 2 -5 -3 4 -6 -1 -10 -11 -10 -40 0 -44 -2 -30 -17 9 -10 15 -11 20 -2 9 14
29 15 48 2 13 -10 13 -9 0 8 -14 18 -13 19 4 13 14 -6 17 -4 12 8 -7 19 4 19
18 0 6 -9 25 -17 41 -20 17 -2 24 -2 17 1 -6 3 -10 10 -7 14 3 5 0 12 -6 16
-7 4 -9 3 -6 -2 3 -6 -3 -11 -14 -11 -10 -1 -19 3 -19 8 0 6 5 7 10 4 6 -3 10
-1 10 5 0 20 35 5 47 -20 6 -14 12 -19 12 -11 1 11 4 11 17 1 13 -11 16 -10
21 8 6 26 20 29 25 5 3 -16 5 -15 9 2 5 16 1 21 -14 22 -11 1 -21 -6 -24 -17
-3 -11 -9 -17 -14 -14 -5 3 -6 11 -2 17 5 9 3 9 -8 0 -12 -10 -15 -8 -16 10
-2 15 0 18 6 9 11 -19 15 -19 35 -3 9 8 19 11 23 8 3 -4 13 -1 21 6 10 7 13 8
9 1 -4 -7 2 -11 18 -11 15 0 22 4 18 11 -3 6 0 5 8 -2 12 -11 12 -14 -1 -22
-13 -8 -13 -11 -1 -22 9 -8 11 -9 7 -1 -3 6 -2 14 4 18 6 3 13 -1 16 -9 3 -9
10 -16 15 -16 5 0 2 11 -6 24 -11 17 -13 26 -5 31 6 4 14 4 17 1 4 -3 1 -6 -6
-6 -7 0 -9 -5 -6 -10 5 -8 12 -7 23 2 13 11 15 11 10 -3 -3 -9 -2 -22 3 -30 7
-11 9 -11 9 -1 0 7 4 11 9 7 5 -3 12 -1 16 5 3 5 11 10 17 10 6 0 5 -7 -3 -18
-13 -16 -13 -16 7 0 16 14 23 15 34 5 11 -9 11 -7 0 7 -14 18 -13 19 3 13 10
-4 21 -7 23 -7 3 0 2 -5 -2 -12 -4 -7 -3 -8 5 -4 9 6 9 11 1 21 -8 10 -8 15 0
20 6 4 14 4 17 1 3 -3 12 -1 20 5 10 9 17 8 30 -2 19 -16 23 -16 34 3 7 11 9
10 9 -1 0 -11 5 -10 20 4 11 10 20 15 20 10 0 -4 7 -2 15 5 8 6 18 9 23 6 5
-3 9 1 9 8 0 8 -7 12 -16 9 -11 -3 -10 0 4 12 20 17 20 17 -2 10 -18 -5 -22
-3 -17 9 3 9 11 13 17 9 6 -3 7 -1 3 5 -4 7 -2 12 5 12 7 0 10 3 7 6 -4 3 -16
1 -27 -6 -12 -6 -21 -7 -21 -2 0 5 11 15 25 22 13 7 22 17 19 22 -3 5 -11 2
-18 -7 -10 -14 -12 -10 -13 25 0 24 -5 45 -9 49 -5 3 -10 19 -12 35 -4 39 -19
66 -37 66 -14 0 -33 -17 -93 -87 l-33 -39 -157 3 c-187 4 -179 3 -179 19 0 9
5 10 19 3 11 -6 18 -6 18 0 0 5 -7 11 -15 15 -8 3 -15 11 -15 18 0 9 3 8 10
-2 5 -8 10 -11 10 -6 0 5 6 3 14 -3 11 -9 13 -7 12 11 -1 17 4 22 19 21 11 -1
14 0 8 3 -20 9 -15 27 5 20 15 -5 15 -5 1 6 -9 7 -14 19 -11 26 3 10 7 10 20
0 15 -12 16 -11 3 5 -14 18 -15 18 -31 -4 -12 -14 -19 -18 -24 -10 -4 6 0 14
8 17 9 3 13 11 9 17 -4 6 -1 7 7 2 10 -6 12 -4 7 8 -3 9 0 23 8 31 8 7 12 16
10 18 -3 3 2 5 10 5 10 0 12 -4 5 -12 -5 -7 -6 -16 -2 -20 4 -5 2 -5 -5 -2
-14 9 -11 -19 4 -34 8 -8 13 -7 18 2 5 7 4 10 -3 5 -6 -3 -13 -2 -16 3 -4 5
-2 12 4 16 6 4 7 11 4 17 -5 8 -1 9 10 5 14 -5 15 -3 6 13 -6 11 -6 21 -1 24
5 4 12 0 15 -6 2 -7 4 -2 3 12 -1 17 3 24 12 22 11 -2 12 0 3 11 -12 14 -7 27
10 27 5 0 6 -6 2 -12 -4 -7 -3 -9 1 -5 16 14 13 33 -5 33 -10 0 -16 -5 -13
-10 3 -5 1 -6 -5 -2 -7 4 -10 -1 -7 -14 3 -13 0 -18 -7 -14 -7 4 -8 3 -4 -4 4
-7 2 -12 -4 -12 -6 0 -9 -4 -5 -9 3 -5 0 -13 -6 -16 -21 -13 -21 4 1 34 12 17
18 31 14 31 -4 0 1 9 11 20 10 11 15 20 10 20 -4 0 -2 6 4 13 6 8 8 17 4 20
-3 4 -1 7 6 7 7 0 10 4 7 9 -3 5 1 14 9 21 8 7 13 16 10 20 -3 4 2 13 10 20 8
7 12 16 9 21 -3 5 -1 9 5 9 5 0 13 -4 16 -10 3 -5 1 -10 -4 -10 -6 0 -11 -5
-11 -10 0 -6 8 -5 20 2 11 7 15 15 9 19 -7 4 -5 9 5 12 21 8 9 40 -13 33 -13
-5 -12 -3 2 8 14 10 15 15 5 19 -10 4 -10 6 0 6 7 1 17 -9 22 -21 6 -16 9 -18
9 -6 1 9 4 18 9 21 4 2 1 2 -6 0 -8 -1 -12 3 -9 9 2 7 10 12 16 10 7 -1 10 2
7 7 -4 5 -2 12 3 16 6 3 7 13 4 22 -4 11 -3 14 5 9 7 -4 12 -2 12 4 0 6 4 9 8
6 4 -2 8 4 9 14 1 10 -5 21 -14 24 -13 5 -14 4 -4 -8 10 -12 8 -17 -9 -26 -13
-7 -19 -17 -16 -26 3 -9 1 -12 -4 -9 -6 4 -9 3 -8 -2 2 -4 -1 -9 -6 -10 -5 -1
-13 -7 -17 -15 -6 -9 -9 -9 -9 -1 0 6 5 15 10 18 6 4 7 11 4 17 -4 7 -2 8 4 4
7 -4 12 -1 12 8 0 9 5 16 11 16 5 0 7 5 3 12 -4 7 -3 8 5 4 8 -5 10 0 7 18 -3
18 -1 24 6 20 8 -5 9 -1 5 10 -4 10 -1 19 8 22 20 8 14 66 -8 88 -17 17 -31
18 -92 5z m35 -313 c0 -9 -30 -14 -35 -6 -4 6 3 10 14 10 12 0 21 -2 21 -4z
m-202 -408 c-7 -13 -11 -27 -10 -32 2 -5 -4 -4 -12 3 -18 15 -11 38 12 44 10
3 18 5 20 6 1 0 -3 -9 -10 -21z m256 -293 c-4 -8 -10 -12 -15 -9 -5 3 -15 2
-21 -3 -22 -13 -37 -12 -31 4 5 12 7 12 14 1 6 -9 9 -9 9 -1 0 6 10 14 23 16
12 2 23 5 24 6 1 0 0 -6 -3 -14z m-837 -67 c-3 -8 -6 -5 -6 6 -1 11 2 17 5 13
3 -3 4 -12 1 -19z"/>
<path d="M1050 1090 c0 -6 -4 -9 -8 -6 -4 2 -8 -4 -8 -14 0 -11 2 -17 5 -15 2
3 9 1 15 -5 8 -6 12 -1 14 15 1 13 -3 27 -8 30 -6 3 -10 1 -10 -5z"/>
<path d="M918 812 c8 -2 5 -10 -10 -23 -13 -10 -19 -18 -15 -19 4 0 2 -10 -5
-22 -18 -33 -20 -52 -4 -39 7 6 17 7 21 3 5 -4 5 -2 2 5 -4 6 -1 14 5 16 10 4
10 6 1 6 -7 1 -13 6 -13 11 0 6 3 9 8 9 19 -3 23 2 11 17 -12 15 -11 16 11 11
14 -4 19 -4 11 -1 -11 5 -9 10 8 19 22 11 21 12 -11 12 -18 0 -27 -2 -20 -5z"/>
<path d="M1234 196 c-3 -9 -10 -16 -16 -16 -5 0 -6 6 -2 13 4 6 -2 4 -13 -6
-11 -9 -24 -14 -28 -10 -5 5 -3 0 4 -9 9 -12 18 -15 30 -9 9 5 22 7 29 5 7 -1
8 0 3 2 -6 3 -7 12 -4 20 5 13 7 13 14 2 6 -9 9 -9 9 -1 0 19 -20 26 -26 9z"/>
<path d="M1106 181 c-4 -6 -14 -8 -24 -5 -12 4 -12 2 3 -7 28 -18 53 -18 50 0
-2 18 -21 26 -29 12z m24 -5 c0 -2 -7 -7 -16 -10 -8 -3 -12 -2 -9 4 6 10 25
14 25 6z"/>
<path d="M1153 161 c0 -11 5 -18 9 -15 4 3 5 11 1 19 -7 21 -12 19 -10 -4z"/>
<path d="M840 160 c-9 -6 -10 -10 -3 -10 6 0 15 5 18 10 8 12 4 12 -15 0z"/>
<path d="M396 143 c-4 -5 -20 -9 -34 -9 -15 -1 -29 -3 -32 -4 -3 -2 -11 -4
-19 -4 -8 -1 -16 -12 -18 -26 l-4 -24 22 23 c16 17 29 21 54 18 39 -5 65 7 49
23 -6 6 -14 7 -18 3z"/>
<path d="M506 141 c-4 -6 -14 -8 -24 -5 -14 5 -14 4 -2 -4 10 -8 18 -8 27 0
10 8 15 4 22 -13 6 -16 10 -18 10 -8 1 21 -25 44 -33 30z"/>
<path d="M433 124 c0 -7 6 -10 14 -7 7 3 13 8 13 12 0 4 -6 8 -13 8 -8 0 -14
-6 -14 -13z"/>
<path d="M838 133 c7 -3 16 -2 19 1 4 3 -2 6 -13 5 -11 0 -14 -3 -6 -6z"/>
<path d="M262 104 c-7 -8 -8 -14 -3 -14 10 0 25 19 20 25 -2 1 -10 -3 -17 -11z"/>
<path d="M340 106 c0 -2 7 -7 16 -10 8 -3 12 -2 9 4 -6 10 -25 14 -25 6z"/>
<path d="M157 83 c-10 -9 -9 -23 1 -23 5 0 9 7 9 15 0 17 -1 18 -10 8z"/>
<path d="M240 70 c-9 -6 -10 -10 -3 -10 6 0 15 5 18 10 8 12 4 12 -15 0z"/>
</g>
</svg>
